<svg id="Logos" xmlns="http://www.w3.org/2000/svg" viewBox="0 0 874 244"><defs><style>.cls-1{fill:#fff;}.cls-2{fill:#e00;}</style></defs><title>Logo-Red_Hat-Ceph_Storage-A-Reverse</title><path class="cls-1" d="M285.64,200.82l7.18,7.28a39.68,39.68,0,0,1-29.12,12.58c-21.63,0-38.17-16.53-38.17-37.54s16.64-37.55,38.17-37.55c11.44,0,22.36,4.68,29.33,12.59l-7.28,7.48a29,29,0,0,0-22.05-10c-15.39,0-27,11.86-27,27.46s11.75,27.45,27.35,27.45A28.21,28.21,0,0,0,285.64,200.82Z"/><path class="cls-1" d="M324.33,165.77c14.56,0,25.58,12.06,25.58,27.66v3h-41.8A17.84,17.84,0,0,0,326,211.63,20.56,20.56,0,0,0,339.41,207l6.66,6.56a31.25,31.25,0,0,1-20.49,7c-15.6,0-27.77-12-27.77-27.45C297.81,177.83,309.35,165.77,324.33,165.77Zm-16.12,22.88h31.41c-1.46-8.11-7.8-14.14-15.5-14.14C316,174.51,309.77,180.33,308.21,188.65Z"/><path class="cls-1" d="M359.69,166.6H370v5a25,25,0,0,1,16.22-5.82c15.08,0,26.73,12.06,26.73,27.25s-11.65,27.35-27,27.35a26.18,26.18,0,0,1-15.81-5.2v25.9h-10.4Zm10.4,14.46v24.13a19.71,19.71,0,0,0,14.66,6.13c10.3,0,18-7.9,18-18.2,0-10.5-7.91-18.3-18-18.3C378.62,174.82,373.52,177.11,370.09,181.06Z"/><path class="cls-1" d="M459.32,188c0-8.22-5-13.42-13.21-13.42a14.91,14.91,0,0,0-13,6.86v38.07h-10.4v-72.8l10.4-2.29v27.46A21.61,21.61,0,0,1,449,165.56c12.17,0,20.6,8.53,20.6,20.7v33.28h-10.3Z"/><path class="cls-1" d="M504.87,199.78c7.8,7.69,15.81,11.44,25.06,11.44,10.61,0,17.69-5,17.69-12.17,0-6.34-4-9.67-14.77-11.44l-12.17-2c-13.52-2.28-19.87-8.63-19.87-18.93,0-12.58,10.51-20.9,26.84-20.9A49.37,49.37,0,0,1,557,155.68l-6,8.32c-7.9-6-15.8-8.94-23.81-8.94-9.47,0-15.81,4.36-15.81,10.81,0,5.83,3.64,8.74,13,10.3L536.07,178c15.5,2.5,22.36,9,22.36,20.18,0,13.31-11.65,22.36-29,22.36a43.85,43.85,0,0,1-31.2-13.11Z"/><path class="cls-1" d="M572.06,175.34H560.82V166.6h11.24V153.08l10.29-2.5v16H598v8.74h-15.6V204c0,5.41,2.19,7.39,7.8,7.39a20.18,20.18,0,0,0,7.59-1.25v8.73a35.44,35.44,0,0,1-9.88,1.56c-10.29,0-15.8-4.88-15.8-14Z"/><path class="cls-1" d="M629.67,165.56A27.51,27.51,0,1,1,602.11,193,27.17,27.17,0,0,1,629.67,165.56Zm0,9.15c-9.67,0-17.37,8-17.37,18.31s7.6,18.41,17.37,18.41S647,203.31,647,193,639.34,174.71,629.67,174.71Z"/><path class="cls-1" d="M666.9,166.6h10.4v6.55a17,17,0,0,1,14.46-7.69,15.17,15.17,0,0,1,5.41.83v9.36a18.67,18.67,0,0,0-6.24-1.14c-5.51,0-10.71,2.7-13.63,9.56v35.47H666.9Z"/><path class="cls-1" d="M700.81,204.35c0-10.6,9.05-16.12,21.42-16.12a36.5,36.5,0,0,1,14.46,2.92v-5.62c0-7.49-4.47-11.23-12.9-11.23-5.09,0-10.3,1.56-16.43,4.47l-3.85-7.8c7.49-3.54,14.35-5.41,21.74-5.41,13.62,0,21.63,6.66,21.63,18.93v35H736.69V215a24.9,24.9,0,0,1-16.43,5.51C708.71,220.47,700.81,213.82,700.81,204.35Zm21.84,8.43a20.41,20.41,0,0,0,14-5v-9.26a27.79,27.79,0,0,0-13.63-3.12c-7.28,0-12.27,3.22-12.27,8.74C710.79,209.35,715.68,212.78,722.65,212.78Z"/><path class="cls-1" d="M756.55,192.81a26.71,26.71,0,0,1,26.83-27.15A25.59,25.59,0,0,1,799.09,171V166.6h10.29V220c0,13.94-8.73,21.43-24.23,21.43a44,44,0,0,1-21.32-5.2l4.06-8.11c6,3.12,11.33,4.57,17,4.57,9.25,0,14.14-4.26,14.14-12.58v-5.72A24.67,24.67,0,0,1,783.17,220C768.2,220,756.55,208,756.55,192.81Zm27.87,18.1A19.09,19.09,0,0,0,799,204.77V180.85a19.09,19.09,0,0,0-14.56-6.14c-10,0-17.68,7.91-17.68,18.1S774.44,210.91,784.42,210.91Z"/><path class="cls-1" d="M845.68,165.77c14.56,0,25.58,12.06,25.58,27.66v3H829.45a17.86,17.86,0,0,0,17.89,15.18A20.56,20.56,0,0,0,860.76,207l6.65,6.56a31.22,31.22,0,0,1-20.48,7c-15.61,0-27.77-12-27.77-27.45C819.16,177.83,830.7,165.77,845.68,165.77Zm-16.12,22.88H861c-1.46-8.11-7.8-14.14-15.5-14.14C837.36,174.51,831.12,180.33,829.56,188.65Z"/><path class="cls-2" d="M129,85c12.5,0,30.61-2.58,30.61-17.46a14,14,0,0,0-.31-3.42l-7.45-32.36c-1.72-7.12-3.23-10.35-15.74-16.6C126.38,10.19,105.26,2,99,2c-5.82,0-7.55,7.54-14.45,7.54-6.68,0-11.64-5.6-17.89-5.6-6,0-9.92,4.1-12.93,12.5,0,0-8.41,23.72-9.49,27.16A6.46,6.46,0,0,0,44,45.55C44,54.76,80.32,85,129,85m32.55-11.42c1.73,8.19,1.73,9.05,1.73,10.13,0,14-15.74,21.77-36.43,21.77C80,105.47,39.08,78.1,39.08,60a18.28,18.28,0,0,1,1.51-7.33C23.77,53.52,2,56.54,2,75.72,2,107.2,76.59,146,135.65,146c45.27,0,56.7-20.48,56.7-36.64,0-12.73-11-27.17-30.83-35.79"/><path d="M161.52,73.57c1.73,8.19,1.73,9.05,1.73,10.13,0,14-15.74,21.77-36.43,21.77C80,105.47,39.08,78.1,39.08,60a18.28,18.28,0,0,1,1.51-7.33l3.66-9.06A6.46,6.46,0,0,0,44,45.55C44,54.76,80.32,85,129,85c12.5,0,30.61-2.58,30.61-17.46a14,14,0,0,0-.31-3.42Z"/><path class="cls-1" d="M581.24,94.3c0,11.89,7.15,17.67,20.19,17.67a52,52,0,0,0,11.88-1.68V96.51a24.78,24.78,0,0,1-7.67,1.16c-5.37,0-7.37-1.68-7.37-6.73V69.8h15.57V55.6H598.27v-18l-17,3.68V55.6H570V69.8h11.26Zm-53,.32c0-3.68,3.68-5.47,9.26-5.47a43,43,0,0,1,10.09,1.26v7.16A21.55,21.55,0,0,1,537,100.19c-5.47,0-8.73-2.1-8.73-5.57m5.2,17.56c6,0,10.83-1.26,15.36-4.31v3.37h16.82V75.58c0-13.56-9.15-21-24.4-21-8.52,0-16.93,2-26,6.1l6.1,12.52c6.52-2.74,12-4.42,16.82-4.42,7,0,10.63,2.73,10.63,8.31v2.73a49.53,49.53,0,0,0-12.62-1.58c-14.31,0-22.93,6-22.93,16.73,0,9.78,7.78,17.24,20.19,17.24m-92.44-.94h18.09V82.42h30.29v28.82h18.08V37.62H489.43V65.91H459.14V37.62H441.05ZM372.12,83.37c0-8,6.31-14.1,14.62-14.1a17.24,17.24,0,0,1,11.78,4.32V93a16.36,16.36,0,0,1-11.78,4.42c-8.21,0-14.62-6.1-14.62-14.09m26.61,27.87h16.82V33.94l-17,3.68V58.55a28.3,28.3,0,0,0-14.2-3.68c-16.2,0-28.92,12.51-28.92,28.5A28.25,28.25,0,0,0,383.79,112a25.15,25.15,0,0,0,14.94-4.83Zm-77.2-42.7c5.37,0,9.89,3.47,11.68,8.83H310c1.68-5.57,5.89-8.83,11.56-8.83M292.82,83.47c0,16.2,13.25,28.82,30.29,28.82,9.36,0,16.2-2.53,23.24-8.41l-11.25-10c-2.63,2.74-6.52,4.21-11.15,4.21a14.38,14.38,0,0,1-13.67-8.83h39.65V85.05c0-17.67-11.88-30.39-28.08-30.39a28.58,28.58,0,0,0-29,28.81M263.48,53.08c6,0,9.36,3.78,9.36,8.31s-3.36,8.31-9.36,8.31H245.6V53.08Zm-36,58.16H245.6V84.42h13.78l13.88,26.82h20.2l-16.2-29.45a22.27,22.27,0,0,0,13.88-20.72c0-13.25-10.41-23.45-26-23.45H227.52Z"/></svg>